Simulation
nRows=46
nColumns=15
endheader
time  TH_x TH_y TH_z SC_y  SC_z  SC_x  AC_y  AC_z  AC_x  GH_y  GH_z  GH_yy  EL_x  PS_y
4.8020000000000005  0.000000  0.000000  0.000000  -46.36986048107984  12.199773574674891  -8.993846280923078  49.54285306577427  24.57718550453684  15.082991304387805  19.24729191015171  78.58881139564544  -18.058993364478944  13.61537026589608  120.000000
4.850020000000001  0.000000  0.000000  0.000000  -46.43356473300563  12.240641132222216  -8.78766095780116  49.49013169075598  24.650780619673732  15.089581895041357  19.31755701154229  78.60226157885631  -18.171955572001742  13.566664096470666  120.000000
4.898040000000001  0.000000  0.000000  0.000000  -46.35326148221624  12.176481394683485  -8.691248430145203  49.49235859296544  24.67807513153905  15.014103319953705  19.49833373727191  78.31831554460538  -17.941056920143314  13.415208012418285  120.000000
4.946060000000001  0.000000  0.000000  0.000000  -46.12168061266741  12.002135106004767  -8.723915102317472  49.55569740684563  24.64366549638475  14.847847381110991  19.78547982121391  77.70377720840608  -17.404673970821705  13.206142116376055  120.000000
4.99408  0.000000  0.000000  0.000000  -45.734205472833956  11.710853550613598  -8.899672140736133  49.67866156246159  24.537119460711285  14.585237252579178  20.164447271352845  76.72897350271394  -16.61239669380043  12.979483805226463  120.000000
5.0421000000000005  0.000000  0.000000  0.000000  -45.18959750519948  11.295131612219151  -9.225457147550376  49.849938169207746  24.35491898334958  14.224489400923527  20.611546162127976  75.37137459648143  -15.620997944985412  12.765944034370706  120.000000
5.090120000000001  0.000000  0.000000  0.000000  -44.4899725689295  10.748109870258025  -9.70064108486899  50.0486543247433  24.10055501698449  13.768535423712942  21.097810376162425  73.61796031462387  -14.488855267303103  12.586700193240834  120.000000
5.138140000000001  0.000000  0.000000  0.000000  -43.641563696043875  10.066487569739513  -10.318228446188373  50.24584857233953  23.78382647759638  13.22604713198785  21.594960805165503  71.46689760428622  -13.26665366002912  12.45551438517397  120.000000
5.186160000000001  0.000000  0.000000  0.000000  -42.65541184392223  9.254642905600067  -11.067213037145834  50.4066227776311  23.421298803700296  12.612978820431369  22.0808355212738  68.92842527543993  -11.991485679381302  12.377729719180815  120.000000
5.234180000000001  0.000000  0.000000  0.000000  -41.54819942650032  8.326335104953953  -11.933188147783055  50.4944409365863  23.036816369793723  11.953914058180153  22.5430139064457  66.02653182473594  -10.684303185044781  12.346840094938742  120.000000
5.2822000000000005  0.000000  0.000000  0.000000  -40.34202540736237  7.307358900250131  -12.89795370961436  50.478231949699925  22.660971119274198  11.279932443191825  22.979754246363317  62.7996061836255  -9.349522767581291  12.344159081187055  120.000000
5.330220000000001  0.000000  0.000000  0.000000  -39.06396035782493  6.233733209511942  -13.936762439191645  50.34102788808871  22.32696020951405  10.626299552069566  23.400388617976926  59.30066062486241  -7.980588493184866  12.34416794547131  120.000000
5.378240000000001  0.000000  0.000000  0.000000  -37.74622560089828  5.149871009202406  -15.016664606221743  50.087523894905914  22.063616828643312  10.027609709547564  23.82525458132738  55.595041570535976  -6.569246613994417  12.32366452728851  120.000000
5.426260000000001  0.000000  0.000000  0.000000  -36.426566207483376  4.103639856002503  -16.096252485083888  49.746050692057516  21.88779843316961  9.511643883477067  24.283400249936783  51.75665953871572  -5.116092078382241  12.269053176817433  120.000000
5.474280000000001  0.000000  0.000000  0.000000  -35.14896851307693  3.1405340772923633  -17.12724177243897  49.36185048495363  21.799839372327003  9.095923079519276  24.80840750271653  47.8615106155124  -3.6363173412831102  12.181451511730076  120.000000
5.5223  0.000000  0.000000  0.000000  -33.962835188396504  2.3013670222273164  -18.061417400716692  48.98633827840443  21.785948542804004  8.785639252985233  25.432856289583565  43.98016945210208  -2.156345086433049  12.075752375822761  120.000000
5.570320000000001  0.000000  0.000000  0.000000  -32.91659045838035  1.6189488118112823  -18.85629962196336  48.66652417744014  21.824451066360332  8.575852462461215  26.185195330475267  40.17341082128545  -0.7070708124235152  11.974578918721589  120.000000
5.618340000000001  0.000000  0.000000  0.000000  -32.04984336826115  1.1154509045243124  -19.477098203378997  48.438268867093775  21.89105707335904  8.455393679413511  27.084612024115305  36.49157949445955  0.6872725600354278  11.902457974561885  120.000000
5.666360000000001  0.000000  0.000000  0.000000  -31.38441109948972  0.8011323530265407  -19.898511004622826  48.32686062884511  21.963355336980037  8.409453290139057  28.140077281009688  32.975837364698975  2.015225673401176  11.882559590410846  120.000000
5.714380000000001  0.000000  0.000000  0.000000  -30.91953260232818  0.6730380513620942  -20.10847046534579  48.350437729254196  22.024616105545167  8.423141345534704  29.35520386209478  29.661297215121326  3.2745912436980853  11.935642756738963  120.000000
5.762400000000001  0.000000  0.000000  0.000000  -30.63752620999783  0.7151211769158344  -20.11037382090268  48.5167772291504  22.064931288611053  8.483288162355096  30.724716542377223  26.578113519213712  4.469890076011709  12.078685215787658  120.000000
5.810420000000001  0.000000  0.000000  0.000000  -30.512610289880698  0.90084466624283  -19.921063110528742  48.82546246401971  22.077919517496678  8.576994247449413  32.2335631870458  23.750923133433634  5.606344620250833  12.322901544707097  120.000000
5.858440000000001  0.000000  0.000000  0.000000  -30.516697358806937  1.1953029518226237  -19.565423657314206  49.26944291214953  22.057558132395773  8.692355788218405  33.86896852294099  21.196797203713984  6.672148442853735  12.672116020968922  120.000000
5.906460000000001  0.000000  0.000000  0.000000  -30.625133014967584  1.559437529808495  -19.07007054007776  49.829452954898905  21.997551149222385  8.821685238436944  35.628076002406104  18.92265723284633  7.626884240691353  13.120230945783364  120.000000
5.954480000000001  0.000000  0.000000  0.000000  -30.81749981470833  1.9558655632178876  -18.460104718376567  50.47076873860363  21.891875742594053  8.960880414970552  37.51720149710357  16.92197075254713  8.4033793830185  13.650389595156513  120.000000
6.002500000000001  0.000000  0.000000  0.000000  -31.072824189038993  2.3593793359469974  -17.759085089606238  51.15315091512029  21.738223208542472  9.101906235365423  39.55241718717248  15.176037284663868  8.915146103917088  14.238499053465334  120.000000
6.050520000000001  0.000000  0.000000  0.000000  -31.369844815852563  2.760047521320589  -16.98869313982196  51.84147857624689  21.541116934150573  9.228528919093156  41.75945872534717  13.662586928387276  9.066766482360196  14.855848951106768  120.000000
6.098540000000001  0.000000  0.000000  0.000000  -31.68918187037153  3.1562534610619433  -16.16692872252963  52.50783101392947  21.30717727075019  9.32283732565587  44.16263551232301  12.359315617899194  8.777983634167384  15.47055049463702  120.000000
6.146560000000001  0.000000  0.000000  0.000000  -32.01488468412351  3.5534312435068447  -15.306827501481136  53.12795999346687  21.039933159090587  9.377908476131758  46.788207775868074  11.241414938712083  7.993098436763662  16.05231073672788  120.000000
6.194580000000001  0.000000  0.000000  0.000000  -32.33632414214365  3.9514046976300263  -14.417746839397502  53.68023364532794  20.745395001837828  9.397971116520742  49.664355968298715  10.281850935371098  6.680748983648848  16.57075738786912  120.000000
6.242600000000001  0.000000  0.000000  0.000000  -32.64486725178991  4.344179033400992  -13.508728689974207  54.1549799881002  20.435004747868685  9.388934210147077  52.826958432118964  9.454975919869732  4.822450021581193  16.99693802822662  120.000000
6.2906200000000005  0.000000  0.000000  0.000000  -32.93279373758672  4.726799896307958  -12.591606996512551  54.55572438785041  20.120544101066166  9.355509745755525  56.30997528209054  8.73773368639966  2.419846935767179  17.31228673745502  120.000000
6.338640000000001  0.000000  0.000000  0.000000  -33.19676123115861  5.091279090018339  -11.683403097311048  54.89131662242638  19.80857606806917  9.30263040802105  60.11337895544341  8.110756539883763  -0.4787424549276805  17.51534011989289  120.000000
6.386660000000001  0.000000  0.000000  0.000000  -33.43480331160416  5.428291941826836  -10.802775759246288  55.174968466150005  19.498336499431115  9.233048791046215  64.1823259069912  7.559987915233264  -3.765051537931385  17.625047246629638  120.000000
6.434680000000001  0.000000  0.000000  0.000000  -33.64157111097508  5.726550785227975  -9.965004416876353  55.4230179830263  19.185465613614948  9.146779758187968  68.38631063424702  7.073359350584203  -7.254865961493394  17.676550861071075  120.000000
6.482700000000001  0.000000  0.000000  0.000000  -33.80847283910404  5.973574232151992  -9.183887510093957  55.64966919650882  18.86539505198897  9.044159868144654  72.53108583780369  6.638697264643896  -10.708988203647696  17.709422233368745  120.000000
6.5307200000000005  0.000000  0.000000  0.000000  -33.9266181961117  6.157160427886104  -8.473290268786208  55.86522763924431  18.535649612476405  8.923046431507878  76.36761132887499  6.244278174740945  -13.851576301363682  17.75462441902829  120.000000
6.578740000000001  0.000000  0.000000  0.000000  -33.98991235215859  6.269455381326958  -7.8483694539552955  56.07116591809356  18.193805506879595  8.779788911624312  79.59559835437126  5.87989748262472  -16.37973715398796  17.824501334610947  120.000000
6.626760000000001  0.000000  0.000000  0.000000  -33.996887581944826  6.308856911930687  -7.326783375725076  56.259638060202526  17.835847345252223  8.609798889300007  81.86103376590991  5.54074092684967  -17.96081826941051  17.911094540081844  120.000000
6.674780000000001  0.000000  0.000000  0.000000  -33.94961482458619  6.281317121715225  -6.92856210442695  56.41598975315027  17.45492841800095  8.410476512999695  82.74722890185954  5.232732298023735  -18.21646807958688  17.991956919883656  120.000000
6.722800000000001  0.000000  0.000000  0.000000  -33.85094356538806  6.197170237397997  -6.673461560685737  56.5218624216456  17.04289012331802  8.184777239020516  81.78474266603473  4.97709896770641  -16.720333695071172  18.038343077733273  120.000000
6.770820000000001  0.000000  0.000000  0.000000  -33.700981118470196  6.068896492957284  -6.578428125791529  56.55962244252418  16.593600206042137  7.944179636357228  78.56001165767366  4.818380355839466  -13.095619162515542  18.0207262612497  120.000000
6.818840000000001  0.000000  0.000000  0.000000  -33.49489400193524  5.907637167659812  -6.654383031742619  56.52183465634387  16.110037987686415  7.705892643969225  73.0181105596292  4.832016442630003  -7.311704198706006  17.91122987978092  120.000000
6.866860000000001  0.000000  0.000000  0.000000  -33.22525262908688  5.720184646834873  -6.90236128388865  56.41336152722299  15.609376908856435  7.492905362127077  65.86447316833569  5.116018214741756  -0.08520911826844524  17.684353648245096  120.000000
6.914880000000001  0.000000  0.000000  0.000000  -32.88657163999505  5.504238938346518  -7.311197093716115  56.243521051439245  15.123019969823336  7.336498318665269  58.53048362350333  5.757887157367971  7.151471272734465  17.319970863699226  120.000000
6.962900000000001  0.000000  0.000000  0.000000  -32.481153821909714  5.252198221278077  -7.864302698129339  56.0239700384876  14.692861792388092  7.2676886893295745  52.39124850062309  6.804183378442612  13.025795049007348  16.809663291826904  120.000000
